<svg width="163" height="360" viewBox="0 0 163 360" fill="none" xmlns="http://www.w3.org/2000/svg">
<path d="M93.9834 256.413C91.6588 262.544 89.0086 268.162 86.1101 273.274L82.8278 307.09L81.7332 318.368L80.1676 334.497C80.2706 333.436 58.2052 346.644 47.1596 353.381C58.0191 357.781 82.2758 363.081 92.4269 349.073C96.2556 343.79 97.9455 332.874 98.3661 319.982C98.4856 316.321 98.5027 312.501 98.4374 308.606C98.1229 289.846 95.8971 269.332 93.9834 256.413Z" fill="#CC4C47"/>
<path d="M160.799 169.418C157.744 150.737 139.557 130.544 130.845 122.782C130.971 130.156 130.494 137.508 129.494 144.961L144.886 163.857C148.283 170.285 147.865 184.181 119.017 188.342C117.057 194.408 114.895 200.653 112.562 207.125C129.914 202.34 163.854 188.098 160.799 169.418Z" fill="#CC4C47"/>
<path d="M43.7738 110.315C30.3694 122.028 4.33116 147.27 7.41276 154.53C10.4944 161.79 28.4037 174.787 36.9732 180.379L39.737 180.647C40.7662 176.584 41.6413 172.577 42.3751 168.632L21.4787 155.895L45.3026 126.386C45.0311 120.765 44.5015 115.396 43.7738 110.315Z" fill="#CC4C47"/>
<path d="M113.469 310.065L98.4374 308.606C98.5027 312.501 98.4856 316.321 98.3661 319.982L127.229 345.773L113.469 310.065Z" fill="#7A3F3C"/>
<path d="M27.1824 313.073L22.5569 328.905L81.7332 318.368L82.8278 307.09L47.3298 309.832C40.2841 312.634 33.3865 313.694 27.1824 313.073Z" fill="#7A3F3C"/>
<path fill-rule="evenodd" clip-rule="evenodd" d="M113.377 56.6091C110.183 50.1323 107.068 44.3762 104.044 39.2697C99.3955 44.1528 88.5519 54.4482 81 61.5L57.174 50.7653C74.6342 49.4369 93.5026 46.2411 102 39.5C102.554 39.0604 103.049 38.6735 103.489 38.3364C80.9683 0.751362 63.6306 -0.764677 57.174 4.07897C47.7543 3.69584 30.6619 13.143 29.7378 51.5C36.6586 51.6879 46.661 51.5651 57.174 50.7653L43.7738 69.5L29.7683 59.3238C29.8386 61.6566 29.963 64.0816 30.1457 66.602C35.3541 75.7578 41.0015 90.9564 43.7738 110.315C44.5015 115.396 45.0311 120.765 45.3026 126.386C45.9253 139.277 45.1905 153.496 42.3751 168.632C41.6413 172.577 40.7662 176.584 39.737 180.647C35.4582 197.535 28.5155 215.375 17.9891 233.643C-10.4706 283.033 3.15505 310.666 27.1824 313.073C33.3865 313.694 40.2841 312.634 47.3298 309.832C61.0344 304.382 75.2992 292.342 86.1101 273.274C89.0086 268.162 91.6588 262.544 93.9834 256.413C95.9209 251.303 97.8164 246.339 99.6612 241.509C104.336 229.268 108.685 217.882 112.562 207.125C114.895 200.653 117.057 194.408 119.017 188.342C123.974 173.002 127.636 158.806 129.494 144.961C130.494 137.508 130.971 130.156 130.845 122.782C130.488 101.848 125.273 80.7353 113.377 56.6091Z" fill="#CC4C47"/>
<path d="M29.7378 51.5L17.9891 50.7653L29.7683 59.3238C29.686 56.5911 29.678 53.9849 29.7378 51.5Z" fill="#1E1E1E"/>
<path d="M57.174 50.7653C46.661 51.5651 36.6586 51.6879 29.7378 51.5C29.678 53.9849 29.686 56.5911 29.7683 59.3238L43.7738 69.5L57.174 50.7653Z" fill="#1E1E1E"/>
<path d="M102 39.5C93.5026 46.2411 74.6342 49.4369 57.174 50.7653L81 61.5C88.5519 54.4482 99.3955 44.1528 104.044 39.2697C103.859 38.9561 103.674 38.6451 103.489 38.3364C103.049 38.6735 102.554 39.0604 102 39.5Z" fill="#1E1E1E"/>
<path d="M93.9834 256.413C91.6588 262.544 89.0086 268.162 86.1101 273.274M93.9834 256.413C95.8971 269.332 98.1229 289.846 98.4374 308.606M93.9834 256.413C95.9209 251.303 97.8164 246.339 99.6612 241.509C104.336 229.268 108.685 217.882 112.562 207.125M43.7738 110.315C41.0015 90.9564 35.3541 75.7578 30.1457 66.602C29.963 64.0816 29.8386 61.6566 29.7683 59.3238M43.7738 110.315C30.3694 122.028 4.33116 147.27 7.41276 154.53C10.4944 161.79 28.4037 174.787 36.9732 180.379L39.737 180.647M43.7738 110.315C44.5015 115.396 45.0311 120.765 45.3026 126.386M39.737 180.647C35.4582 197.535 28.5155 215.375 17.9891 233.643C-10.4706 283.033 3.15505 310.666 27.1824 313.073M39.737 180.647C40.7662 176.584 41.6413 172.577 42.3751 168.632M45.3026 126.386L21.4787 155.895L42.3751 168.632M45.3026 126.386C45.9253 139.277 45.1905 153.496 42.3751 168.632M130.845 122.782C130.488 101.848 125.273 80.7353 113.377 56.6091C110.183 50.1323 107.068 44.3762 104.044 39.2697M130.845 122.782C139.557 130.544 157.744 150.737 160.799 169.418C163.854 188.098 129.914 202.34 112.562 207.125M130.845 122.782C130.971 130.156 130.494 137.508 129.494 144.961M112.562 207.125C114.895 200.653 117.057 194.408 119.017 188.342M129.494 144.961L144.886 163.857C148.283 170.285 147.865 184.181 119.017 188.342M129.494 144.961C127.636 158.806 123.974 173.002 119.017 188.342M86.1101 273.274C75.2992 292.342 61.0344 304.382 47.3298 309.832M86.1101 273.274C85.2269 282.373 83.9631 295.393 82.8278 307.09M86.1101 273.274L82.8278 307.09M80.1676 334.497C80.2706 333.436 58.2052 346.644 47.1596 353.381C58.0191 357.781 82.2758 363.081 92.4269 349.073C96.2556 343.79 97.9455 332.874 98.3661 319.982M80.1676 334.497C80.1249 334.938 80.7927 328.058 81.7332 318.368M80.1676 334.497L81.7332 318.368M27.1824 313.073L22.5569 328.905L81.7332 318.368M27.1824 313.073C33.3865 313.694 40.2841 312.634 47.3298 309.832M81.7332 318.368C82.0698 314.9 82.4414 311.072 82.8278 307.09M81.7332 318.368L82.8278 307.09M47.3298 309.832L82.8278 307.09M98.4374 308.606L113.469 310.065L127.229 345.773L98.3661 319.982M98.4374 308.606C98.5027 312.501 98.4856 316.321 98.3661 319.982M57.174 92.5C67.1215 92.4636 87.7133 88.8127 90.5 74.5M86.1101 69.5C89.4434 75.466 93.2 79.7 102 74.5M29.7378 51.5C30.6619 13.143 47.7543 3.69584 57.174 4.07897C63.6306 -0.764677 80.9683 0.751362 103.489 38.3364M29.7378 51.5C36.6586 51.6879 46.661 51.5651 57.174 50.7653M29.7378 51.5L17.9891 50.7653L29.7683 59.3238M29.7378 51.5C29.678 53.9849 29.686 56.5911 29.7683 59.3238M57.174 50.7653C74.6342 49.4369 93.5026 46.2411 102 39.5C102.554 39.0604 103.049 38.6735 103.489 38.3364M57.174 50.7653L81 61.5C88.5519 54.4482 99.3955 44.1528 104.044 39.2697M57.174 50.7653L43.7738 69.5L29.7683 59.3238M104.044 39.2697C106.879 36.2922 107.411 35.327 103.489 38.3364M104.044 39.2697C103.859 38.9561 103.674 38.6451 103.489 38.3364" stroke="#1E1E1E" stroke-width="3"/>
</svg>
